# Blender 3.4.1
# www.blender.org
mtllib sphere_vertex_colors.mtl
o Sphere
v 0.000000 0.500000 0.000000 1.0000 0.0000 0.0000
v 0.172746 0.404509 -0.237764 1.0000 0.0000 0.0000
v 0.279509 0.154508 -0.384710 1.0000 0.0000 0.0000
v 0.279509 -0.154508 -0.384710 1.0000 0.0000 0.0000
v 0.172746 -0.404509 -0.237764 1.0000 0.0000 0.0000
v 0.279509 0.404509 -0.090818 1.0000 0.0000 0.0000
v 0.452254 0.154508 -0.146946 1.0000 0.0000 0.0000
v 0.452254 -0.154508 -0.146946 1.0000 0.0000 0.0000
v 0.279509 -0.404509 -0.090818 1.0000 0.0000 0.0000
v 0.279509 0.404509 0.090818 1.0000 0.0000 0.0000
v 0.452254 0.154508 0.146946 1.0000 0.0000 0.0000
v 0.452254 -0.154508 0.146946 1.0000 0.0000 0.0000
v 0.279509 -0.404509 0.090818 1.0000 0.0000 0.0000
v 0.172746 0.404509 0.237764 1.0000 0.0000 0.0000
v 0.279509 0.154508 0.384710 0.0000 1.0000 0.0000
v 0.279509 -0.154508 0.384710 0.0000 1.0000 0.0000
v 0.172746 -0.404509 0.237764 0.0000 1.0000 0.0000
v 0.000000 0.404509 0.293893 0.0000 1.0000 0.0000
v 0.000000 0.154508 0.475528 0.0000 1.0000 0.0000
v 0.000000 -0.154508 0.475528 0.0000 1.0000 0.0000
v 0.000000 -0.404509 0.293893 0.0000 1.0000 0.0000
v -0.172746 0.404509 0.237764 0.0000 1.0000 0.0000
v -0.279508 0.154508 0.384710 0.0000 1.0000 0.0000
v -0.279508 -0.154508 0.384710 0.0000 1.0000 0.0000
v -0.172746 -0.404509 0.237764 0.0000 1.0000 0.0000
v -0.279508 0.404509 0.090818 0.0000 1.0000 0.0000
v -0.452254 0.154508 0.146946 0.0000 1.0000 0.0000
v -0.452254 -0.154508 0.146946 0.0000 1.0000 0.0000
v -0.279508 -0.404509 0.090818 0.0000 0.0000 1.0000
v 0.000000 -0.500000 -0.000000 0.0000 0.0000 1.0000
v -0.279509 0.404509 -0.090818 0.0000 0.0000 1.0000
v -0.452254 0.154508 -0.146946 0.0000 0.0000 1.0000
v -0.452254 -0.154508 -0.146946 0.0000 0.0000 1.0000
v -0.279509 -0.404509 -0.090818 0.0000 0.0000 1.0000
v -0.172746 0.404509 -0.237764 0.0000 0.0000 1.0000
v -0.279509 0.154508 -0.384710 0.0000 0.0000 1.0000
v -0.279509 -0.154508 -0.384710 0.0000 0.0000 1.0000
v -0.172746 -0.404509 -0.237764 0.0000 0.0000 1.0000
v 0.000000 0.404509 -0.293893 0.0000 0.0000 1.0000
v 0.000000 0.154508 -0.475528 0.0000 0.0000 1.0000
v 0.000000 -0.154508 -0.475528 0.0000 0.0000 1.0000
v 0.000000 -0.404509 -0.293893 0.0000 0.0000 1.0000
vn 0.0999 -0.9463 -0.3075
vn 0.3090 -0.0000 -0.9511
vn 0.0999 0.9463 -0.3075
vn 0.2542 -0.5685 -0.7824
vn 0.2542 0.5685 -0.7824
vn 0.2615 -0.9463 -0.1900
vn 0.8090 -0.0000 -0.5878
vn 0.2615 0.9463 -0.1900
vn 0.6656 -0.5685 -0.4836
vn 0.6656 0.5685 -0.4836
vn 0.3233 -0.9463 -0.0000
vn 1.0000 -0.0000 -0.0000
vn 0.3233 0.9463 -0.0000
vn 0.8227 -0.5685 -0.0000
vn 0.8227 0.5685 -0.0000
vn 0.2615 -0.9463 0.1900
vn 0.8090 -0.0000 0.5878
vn 0.2615 0.9463 0.1900
vn 0.6656 -0.5685 0.4836
vn 0.6656 0.5685 0.4836
vn 0.0999 -0.9463 0.3075
vn 0.3090 -0.0000 0.9511
vn 0.0999 0.9463 0.3075
vn 0.2542 -0.5685 0.7824
vn 0.2542 0.5685 0.7824
vn -0.0999 -0.9463 0.3075
vn -0.3090 -0.0000 0.9511
vn -0.0999 0.9463 0.3075
vn -0.2542 -0.5685 0.7824
vn -0.2542 0.5685 0.7824
vn -0.2615 -0.9463 0.1900
vn -0.8090 -0.0000 0.5878
vn -0.2615 0.9463 0.1900
vn -0.6656 -0.5685 0.4836
vn -0.6656 0.5685 0.4836
vn -0.3233 -0.9463 -0.0000
vn -1.0000 -0.0000 -0.0000
vn -0.3233 0.9463 -0.0000
vn -0.8227 -0.5685 -0.0000
vn -0.8227 0.5685 -0.0000
vn -0.2615 -0.9463 -0.1900
vn -0.8090 -0.0000 -0.5878
vn -0.2615 0.9463 -0.1900
vn -0.6656 -0.5685 -0.4836
vn -0.6656 0.5685 -0.4836
vn -0.0999 -0.9463 -0.3075
vn -0.3090 -0.0000 -0.9511
vn -0.0999 0.9463 -0.3075
vn -0.2542 -0.5685 -0.7824
vn -0.2542 0.5685 -0.7824
vt 0.650000 1.000000
vt 0.550000 1.000000
vt 0.450000 1.000000
vt 0.350000 1.000000
vt 0.250000 1.000000
vt 0.150000 1.000000
vt 0.050000 1.000000
vt 0.950000 1.000000
vt 0.850000 1.000000
vt 0.750000 1.000000
vt 0.600000 0.800000
vt 0.600000 0.600000
vt 0.600000 0.400000
vt 0.600000 0.200000
vt 0.500000 0.800000
vt 0.500000 0.600000
vt 0.500000 0.400000
vt 0.500000 0.200000
vt 0.400000 0.800000
vt 0.400000 0.600000
vt 0.400000 0.400000
vt 0.400000 0.200000
vt 0.300000 0.800000
vt 0.300000 0.600000
vt 0.300000 0.400000
vt 0.300000 0.200000
vt 0.200000 0.800000
vt 0.200000 0.600000
vt 0.200000 0.400000
vt 0.200000 0.200000
vt 0.100000 0.800000
vt 0.100000 0.600000
vt 0.100000 0.400000
vt 0.100000 0.200000
vt 0.000000 0.800000
vt 1.000000 0.800000
vt 0.000000 0.600000
vt 1.000000 0.600000
vt 0.000000 0.400000
vt 1.000000 0.400000
vt 0.000000 0.200000
vt 1.000000 0.200000
vt 0.650000 0.000000
vt 0.550000 0.000000
vt 0.450000 0.000000
vt 0.350000 0.000000
vt 0.250000 0.000000
vt 0.150000 0.000000
vt 0.050000 0.000000
vt 0.950000 0.000000
vt 0.850000 0.000000
vt 0.750000 0.000000
vt 0.900000 0.800000
vt 0.900000 0.600000
vt 0.900000 0.400000
vt 0.900000 0.200000
vt 0.800000 0.800000
vt 0.800000 0.600000
vt 0.800000 0.400000
vt 0.800000 0.200000
vt 0.700000 0.800000
vt 0.700000 0.600000
vt 0.700000 0.400000
vt 0.700000 0.200000
s 0
f 30/43/1 42/64/1 5/14/1
f 41/63/2 40/62/2 3/12/2 4/13/2
f 39/61/3 1/1/3 2/11/3
f 42/64/4 41/63/4 4/13/4 5/14/4
f 40/62/5 39/61/5 2/11/5 3/12/5
f 30/44/6 5/14/6 9/18/6
f 4/13/7 3/12/7 7/16/7 8/17/7
f 2/11/8 1/2/8 6/15/8
f 5/14/9 4/13/9 8/17/9 9/18/9
f 3/12/10 2/11/10 6/15/10 7/16/10
f 30/45/11 9/18/11 13/22/11
f 8/17/12 7/16/12 11/20/12 12/21/12
f 6/15/13 1/3/13 10/19/13
f 9/18/14 8/17/14 12/21/14 13/22/14
f 7/16/15 6/15/15 10/19/15 11/20/15
f 30/46/16 13/22/16 17/26/16
f 12/21/17 11/20/17 15/24/17 16/25/17
f 10/19/18 1/4/18 14/23/18
f 13/22/19 12/21/19 16/25/19 17/26/19
f 11/20/20 10/19/20 14/23/20 15/24/20
f 30/47/21 17/26/21 21/30/21
f 16/25/22 15/24/22 19/28/22 20/29/22
f 14/23/23 1/5/23 18/27/23
f 17/26/24 16/25/24 20/29/24 21/30/24
f 15/24/25 14/23/25 18/27/25 19/28/25
f 30/48/26 21/30/26 25/34/26
f 20/29/27 19/28/27 23/32/27 24/33/27
f 18/27/28 1/6/28 22/31/28
f 21/30/29 20/29/29 24/33/29 25/34/29
f 19/28/30 18/27/30 22/31/30 23/32/30
f 30/49/31 25/34/31 29/41/31
f 24/33/32 23/32/32 27/37/32 28/39/32
f 22/31/33 1/7/33 26/35/33
f 25/34/34 24/33/34 28/39/34 29/41/34
f 23/32/35 22/31/35 26/35/35 27/37/35
f 30/50/36 29/42/36 34/56/36
f 28/40/37 27/38/37 32/54/37 33/55/37
f 26/36/38 1/8/38 31/53/38
f 29/42/39 28/40/39 33/55/39 34/56/39
f 27/38/40 26/36/40 31/53/40 32/54/40
f 30/51/41 34/56/41 38/60/41
f 33/55/42 32/54/42 36/58/42 37/59/42
f 31/53/43 1/9/43 35/57/43
f 34/56/44 33/55/44 37/59/44 38/60/44
f 32/54/45 31/53/45 35/57/45 36/58/45
f 30/52/46 38/60/46 42/64/46
f 37/59/47 36/58/47 40/62/47 41/63/47
f 35/57/48 1/10/48 39/61/48
f 38/60/49 37/59/49 41/63/49 42/64/49
f 36/58/50 35/57/50 39/61/50 40/62/50
